ply
format ascii 1.0
element vertex 213
property float32 x
property float32 y
property float32 z
element face 1
property list uchar uint
vertex_indices
end_header
0.823732 -1.7317941 -5.960464e-05
0.6981903 -1.674691 -5.960464e-05
0.6257343 -1.6215234 -5.960464e-05
0.59646857 -1.5719538 -5.960464e-05
0.60130906 -1.5256643 -5.960464e-05
0.63198376 -1.4823546 -5.960464e-05
0.6810323 -1.4417429 -5.960464e-05
0.74180615 -1.4035652 -5.960464e-05
0.8084686 -1.3675765 -5.960464e-05
0.8759947 -1.3335493 -5.960464e-05
0.9401714 -1.3012741 -5.960464e-05
0.9975973 -1.2705606 -5.960464e-05
1.0456829 -1.2412362 -5.960464e-05
1.0826503 -1.2131463 -5.960464e-05
1.1075336 -1.186155 -5.960464e-05
1.1201785 -1.1601439 -5.960464e-05
1.1212428 -1.1350133 -5.960464e-05
1.1121957 -1.1106826 -5.960464e-05
1.0952384 -1.0870861 -5.960464e-05
1.0727503 -1.0641687 -5.960464e-05
1.0469042 -1.0418768 -5.960464e-05
1.0196455 -1.0201606 -5.960464e-05
0.9926923 -0.9989718 -5.960464e-05
0.9675357 -0.9782648 -5.960464e-05
0.94543886 -0.9579969 -5.960464e-05
0.9274382 -0.93812764 -5.960464e-05
0.9143421 -0.91861916 -5.960464e-05
0.90673244 -0.89943594 -5.960464e-05
0.9049629 -0.8805454 -5.960464e-05
0.9091602 -0.8619169 -5.960464e-05
0.91922385 -0.84352285 -5.960464e-05
0.9348258 -0.825338 -5.960464e-05
0.9554106 -0.8073394 -5.960464e-05
0.98019564 -0.7895068 -5.960464e-05
1.0081708 -0.77182263 -5.960464e-05
1.0380989 -0.7542717 -5.960464e-05
1.0685648 -0.7368408 -5.960464e-05
1.0981953 -0.71951836 -5.960464e-05
1.1257677 -0.70229274 -5.960464e-05
1.1502105 -0.68515307 -5.960464e-05
1.1706052 -0.6680886 -5.960464e-05
1.1861852 -0.65108955 -5.960464e-05
1.1963365 -0.63414603 -5.960464e-05
1.2005974 -0.6172488 -5.960464e-05
1.1986585 -0.6003893 -5.960464e-05
1.1903626 -0.58355904 -5.960464e-05
1.1757048 -0.56675017 -5.960464e-05
1.154833 -0.5499555 -5.960464e-05
1.1280468 -0.5331677 -5.960464e-05
1.0957985 -0.51638067 -5.960464e-05
1.0586926 -0.49958795 -5.960464e-05
1.0174859 -0.4827841 -5.960464e-05
0.9730877 -0.46596402 -5.960464e-05
0.92655885 -0.4491228 -5.960464e-05
0.87906325 -0.432256 -5.960464e-05
0.8317214 -0.41535896 -5.960464e-05
0.7855611 -0.39842576 -5.960464e-05
0.74151754 -0.38145068 -5.960464e-05
0.70043254 -0.36442673 -5.960464e-05
0.66305554 -0.34734675 -5.960464e-05
0.6300429 -0.3302028 -5.960464e-05
0.6019575 -0.31298628 -5.960464e-05
0.5792701 -0.29568812 -5.960464e-05
0.562358 -0.27829847 -5.960464e-05
0.55150574 -0.26080707 -5.960464e-05
0.546905 -0.24320295 -5.960464e-05
0.5486543 -0.22547446 -5.960464e-05
0.5567595 -0.20760952 -5.960464e-05
0.57113326 -0.18959524 -5.960464e-05
0.5915956 -0.17141828 -5.960464e-05
0.6178732 -0.15306473 -5.960464e-05
0.64960086 -0.13451977 -5.960464e-05
0.6863378 -0.11576852 -5.960464e-05
0.7276053 -0.09679536 -5.960464e-05
0.7728923 -0.07758502 -5.960464e-05
0.82165825 -0.05812157 -5.960464e-05
0.8733314 -0.03838899 -5.960464e-05
0.9273097 -0.018370876 -5.960464e-05
0.9829589 0.0019488574 -5.960464e-05
1.0396152 0.02258701 -5.960464e-05
1.0965843 0.043560676 -5.960464e-05
1.1531394 0.06488648 -5.960464e-05
1.2085243 0.08658197 -5.960464e-05
1.2619526 0.10866481 -5.960464e-05
1.3126049 0.13115236 -5.960464e-05
1.3596327 0.15406269 -5.960464e-05
1.4021568 0.17741416 -5.960464e-05
1.4392661 0.20122476 -5.960464e-05
1.4700195 0.22551323 -5.960464e-05
1.493454 0.2503032 -5.960464e-05
1.5087533 0.27571267 -5.960464e-05
1.5154887 0.302081 -5.960464e-05
1.5136557 0.3299892 -5.960464e-05
1.5036719 0.3602589 -5.960464e-05
1.4863795 0.3939519 -5.960464e-05
1.4630429 0.4323713 -5.960464e-05
1.43535 0.47706118 -5.960464e-05
1.4054123 0.5298052 -5.960464e-05
1.3757645 0.5926291 -5.960464e-05
1.3493642 0.6677984 -5.960464e-05
1.3295923 0.7578213 -5.960464e-05
1.3202536 0.86544293 -5.960464e-05
1.3255754 0.9936529 -5.960464e-05
1.3502086 1.1456813 -5.960464e-05
1.3992271 1.3249948 -5.960464e-05
1.4781287 1.5353062 -5.960464e-05
1.5928346 1.7805676 -5.960464e-05
1.4743497 -1.7515296 -5.960464e-05
1.3662066 -1.6779722 -5.960464e-05
1.2971135 -1.6285563 -5.960464e-05
1.2475343 -1.5598898 -5.960464e-05
1.2316501 -1.4990275 -5.960464e-05
1.241065 -1.4449543 -5.960464e-05
1.268262 -1.3967333 -5.960464e-05
1.3066033 -1.3535058 -5.960464e-05
1.35033 -1.3144913 -5.960464e-05
1.394562 -1.2789862 -5.960464e-05
1.4352984 -1.2463669 -5.960464e-05
1.4694178 -1.2160863 -5.960464e-05
1.4946766 -1.1876756 -5.960464e-05
1.509711 -1.1607448 -5.960464e-05
1.5140365 -1.1349813 -5.960464e-05
1.5080469 -1.1101506 -5.960464e-05
1.4930153 -1.0860966 -5.960464e-05
1.4710088 -1.0627351 -5.960464e-05
1.4443029 -1.0400139 -5.960464e-05
1.4149737 -1.017884 -5.960464e-05
1.3848761 -0.9963 -5.960464e-05
1.3556435 -0.97521704 -5.960464e-05
1.3286879 -0.9545939 -5.960464e-05
1.3051997 -0.9343908 -5.960464e-05
1.2861487 -0.9145702 -5.960464e-05
1.2722822 -0.8950976 -5.960464e-05
1.2641273 -0.8759398 -5.960464e-05
1.2619889 -0.8570663 -5.960464e-05
1.2659508 -0.8384489 -5.960464e-05
1.2758756 -0.8200612 -5.960464e-05
1.2914044 -0.8018797 -5.960464e-05
1.3119569 -0.78388256 -5.960464e-05
1.3367311 -0.7660506 -5.960464e-05
1.3647045 -0.74836653 -5.960464e-05
1.3946326 -0.7308154 -5.960464e-05
1.4250982 -0.7133846 -5.960464e-05
1.4547288 -0.69606227 -5.960464e-05
1.4823012 -0.6788367 -5.960464e-05
1.5067439 -0.6616969 -5.960464e-05
1.5271387 -0.64463246 -5.960464e-05
1.5427188 -0.6276334 -5.960464e-05
1.55287 -0.6106899 -5.960464e-05
1.557131 -0.5937927 -5.960464e-05
1.555192 -0.57693315 -5.960464e-05
1.546896 -0.5601028 -5.960464e-05
1.5322382 -0.54329395 -5.960464e-05
1.5113665 -0.52649933 -5.960464e-05
1.4845803 -0.50971156 -5.960464e-05
1.452332 -0.4929245 -5.960464e-05
1.4152261 -0.47613177 -5.960464e-05
1.3740194 -0.45932794 -5.960464e-05
1.3296213 -0.4425079 -5.960464e-05
1.2830924 -0.42566666 -5.960464e-05
1.2355968 -0.4087999 -5.960464e-05
1.188255 -0.39190277 -5.960464e-05
1.1420946 -0.37496963 -5.960464e-05
1.0980511 -0.3579945 -5.960464e-05
1.0569661 -0.3409706 -5.960464e-05
1.0195891 -0.3238906 -5.960464e-05
0.9865764 -0.30674657 -5.960464e-05
0.958491 -0.28953013 -5.960464e-05
0.93580365 -0.27223194 -5.960464e-05
0.9188915 -0.25484228 -5.960464e-05
0.9080393 -0.2373509 -5.960464e-05
0.90343857 -0.21974675 -5.960464e-05
0.90518785 -0.2020183 -5.960464e-05
0.913293 -0.18415336 -5.960464e-05
0.9276668 -0.1661391 -5.960464e-05
0.9481291 -0.14796211 -5.960464e-05
0.9744067 -0.12960854 -5.960464e-05
1.0061344 -0.11106364 -5.960464e-05
1.0428714 -0.09231237 -5.960464e-05
1.0841388 -0.073339194 -5.960464e-05
1.1294258 -0.054128874 -5.960464e-05
1.1781918 -0.034665413 -5.960464e-05
1.229865 -0.014932845 -5.960464e-05
1.2838433 0.0050852727 -5.960464e-05
1.3394923 0.025405006 -5.960464e-05
1.3961487 0.046043172 -5.960464e-05
1.4531178 0.067016825 -5.960464e-05
1.5096729 0.08834264 -5.960464e-05
1.5650578 0.11003812 -5.960464e-05
1.6184859 0.13212095 -5.960464e-05
1.6691383 0.15460849 -5.960464e-05
1.7161661 0.17751881 -5.960464e-05
1.7586904 0.20087034 -5.960464e-05
1.7957996 0.22468092 -5.960464e-05
1.826553 0.2489694 -5.960464e-05
1.8499874 0.27376008 -5.960464e-05
1.8652868 0.29918557 -5.960464e-05
1.8720223 0.32563278 -5.960464e-05
1.8701892 0.35376585 -5.960464e-05
1.8602054 0.38452506 -5.960464e-05
1.8429129 0.4191266 -5.960464e-05
1.8195765 0.45906368 -5.960464e-05
1.7918835 0.5061058 -5.960464e-05
1.7619457 0.5622979 -5.960464e-05
1.7322981 0.62996256 -5.960464e-05
1.7058976 0.7116981 -5.960464e-05
1.686126 0.8103802 -5.960464e-05
1.676787 0.92915815 -5.960464e-05
1.6821088 1.0714607 -5.960464e-05
1.706742 1.2409933 -5.960464e-05
1.7557607 1.4417326 -5.960464e-05
1.8346622 1.6779374 -5.960464e-05
1.949368 1.9541432 -5.960464e-05
3 0 1 2