ply
format ascii 1.0
element vertex 133
property float32 x
property float32 y
property float32 z
element face 1
property list uchar uint
vertex_indices
end_header
0.41743046 2.1320798 -5.960464e-05
0.4075411 2.099302 -5.960464e-05
0.4029097 2.0662448 -5.960464e-05
0.4037938 2.0330048 -5.960464e-05
0.4103617 1.9996643 -5.960464e-05
0.42269146 1.966294 -5.960464e-05
0.44077224 1.9329507 -5.960464e-05
0.464503 1.8996804 -5.960464e-05
0.49369392 1.8665144 -5.960464e-05
0.52806485 1.8334723 -5.960464e-05
0.5672468 1.8005607 -5.960464e-05
0.61078095 1.7677736 -5.960464e-05
0.6581354 1.7350943 -5.960464e-05
0.70875895 1.7025042 -5.960464e-05
0.7621006 1.6699839 -5.960464e-05
0.81761116 1.6375153 -5.960464e-05
0.87474144 1.6050801 -5.960464e-05
0.932944 1.57266 -5.960464e-05
0.9916715 1.5402367 -5.960464e-05
1.0503784 1.5077937 -5.960464e-05
1.1085193 1.4753132 -5.960464e-05
1.1655504 1.4427779 -5.960464e-05
1.2209282 1.4101717 -5.960464e-05
1.2741108 1.3774776 -5.960464e-05
1.3245567 1.3446796 -5.960464e-05
1.3717257 1.3117616 -5.960464e-05
1.4150782 1.2787075 -5.960464e-05
1.4540827 1.2455032 -5.960464e-05
1.4882568 1.2121353 -5.960464e-05
1.5171856 1.1785946 -5.960464e-05
1.5405245 1.1448748 -5.960464e-05
1.5579993 1.1109743 -5.960464e-05
1.569405 1.0768938 -5.960464e-05
1.5746073 1.0426373 -5.960464e-05
1.5735413 1.0082129 -5.960464e-05
1.5662122 0.97363204 -5.960464e-05
1.552695 0.93890923 -5.960464e-05
1.5331347 0.90406257 -5.960464e-05
1.507746 0.86911356 -5.960464e-05
1.4768142 0.83408743 -5.960464e-05
1.4406936 0.7990125 -5.960464e-05
1.3998091 0.7639205 -5.960464e-05
1.3546513 0.72884625 -5.960464e-05
1.3057449 0.69382244 -5.960464e-05
1.253622 0.6588764 -5.960464e-05
1.1988194 0.6240285 -5.960464e-05
1.1418802 0.58929366 -5.960464e-05
1.0833524 0.5546806 -5.960464e-05
1.0237904 0.520192 -5.960464e-05
0.96375316 0.48582435 -5.960464e-05
0.90380496 0.45156756 -5.960464e-05
0.84451616 0.41740614 -5.960464e-05
0.7864624 0.38331836 -5.960464e-05
0.7302253 0.3492763 -5.960464e-05
0.6763905 0.31524548 -5.960464e-05
0.6255504 0.28118595 -5.960464e-05
0.5783026 0.24705163 -5.960464e-05
0.5352492 0.21279046 -5.960464e-05
0.4969802 0.17834984 -5.960464e-05
0.4640565 0.1436843 -5.960464e-05
0.43700618 0.10875524 -5.960464e-05
0.41632473 0.073531345 -5.960464e-05
0.4024757 0.037988853 -5.960464e-05
0.39588934 0.002110416 -5.960464e-05
0.39696413 -0.034113277 -5.960464e-05
0.40606588 -0.070684545 -5.960464e-05
0.42352825 -0.10759823 -5.960464e-05
0.44965196 -0.14484273 -5.960464e-05
0.48470578 -0.18239833 -5.960464e-05
0.5289258 -0.22023848 -5.960464e-05
0.58251536 -0.25832894 -5.960464e-05
0.64564645 -0.29662913 -5.960464e-05
0.71845555 -0.3350907 -5.960464e-05
0.8009993 -0.37366092 -5.960464e-05
0.8931671 -0.41228765 -5.960464e-05
0.9946689 -0.45092157 -5.960464e-05
1.1050308 -0.48951417 -5.960464e-05
1.2235973 -0.5280188 -5.960464e-05
1.3495312 -0.5663907 -5.960464e-05
1.4818122 -0.60458666 -5.960464e-05
1.6192414 -0.6425661 -5.960464e-05
1.7604347 -0.6802893 -5.960464e-05
1.903827 -0.71771836 -5.960464e-05
2.0476704 -0.7548173 -5.960464e-05
2.1900377 -0.79155225 -5.960464e-05
2.3288178 -0.82789075 -5.960464e-05
2.4617174 -0.8638021 -5.960464e-05
2.5862641 -0.8992573 -5.960464e-05
2.6999197 -0.93423146 -5.960464e-05
2.8003933 -0.9687082 -5.960464e-05
2.8857396 -1.0026836 -5.960464e-05
2.9543493 -1.0361631 -5.960464e-05
3.0049584 -1.0691636 -5.960464e-05
3.036645 -1.1017127 -5.960464e-05
3.0488274 -1.1338491 -5.960464e-05
3.0412676 -1.1656222 -5.960464e-05
3.0140698 -1.1970925 -5.960464e-05
2.9676793 -1.2283313 -5.960464e-05
2.902885 -1.2594202 -5.960464e-05
2.8208141 -1.2904532 -5.960464e-05
2.72294 -1.3215337 -5.960464e-05
2.6110764 -1.3527763 -5.960464e-05
2.4873786 -1.3843074 -5.960464e-05
2.35428 -1.4162598 -5.960464e-05
2.214222 -1.448766 -5.960464e-05
2.0695324 -1.4819493 -5.960464e-05
1.9224278 -1.5159242 -5.960464e-05
1.7749996 -1.550801 -5.960464e-05
1.6292319 -1.5866785 -5.960464e-05
1.4869895 -1.6236506 -5.960464e-05
1.3500221 -1.6618009 -5.960464e-05
1.2199631 -1.7012072 -5.960464e-05
1.0983307 -1.7419386 -5.960464e-05
0.98652637 -1.7840569 -5.960464e-05
0.88583636 -1.8276155 -5.960464e-05
0.7974321 -1.8726604 -5.960464e-05
0.72236544 -1.9192314 -5.960464e-05
0.6615761 -1.9673579 -5.960464e-05
0.61589444 -2.0170665 -5.960464e-05
0.5860927 -2.0684052 -5.960464e-05
0.5729189 -2.121459 -5.960464e-05
0.5770985 -2.1763525 -5.960464e-05
0.59933484 -2.2332468 -5.960464e-05
0.6403076 -2.2923427 -5.960464e-05
0.7006763 -2.3538814 -5.960464e-05
0.7810762 -2.4181404 -5.960464e-05
0.8821205 -2.485436 -5.960464e-05
1.0044 -2.5561235 -5.960464e-05
1.148483 -2.6305978 -5.960464e-05
1.3149155 -2.70929 -5.960464e-05
1.504221 -2.792672 -5.960464e-05
1.7169001 -2.881253 -5.960464e-05
1.9534279 -2.9755795 -5.960464e-05
3 0 1 2